<?xml version="1.0" encoding="UTF-8"?>
<svg id="Layer_1" xmlns="http://www.w3.org/2000/svg" version="1.1" viewBox="0 0 488.5 581.7">
  <!-- Generator: Adobe Illustrator 30.5.1, SVG Export Plug-In . SVG Version: 2.1.4 Build 3)  -->
  <defs>
    <style>
      .st0 {
        fill: #f9f9fb;
      }

      .st1 {
        fill: #4a5151;
      }

      .st2 {
        fill: #efefed;
      }

      .st3 {
        fill: #e5e5e7;
      }

      .st4 {
        fill: #bcbcbc;
      }

      .st5 {
        fill: #d8d4cb;
      }

      .st6 {
        fill: none;
        stroke: #c7c7cc;
        stroke-width: 1.9px;
      }
    </style>
  </defs>
  <rect class="st3" x=".5" y="46.5" width="488" height="488" rx="14.2" ry="14.2"/>
  <g>
    <rect class="st2" x="-114.7" y="177.2" width="471.9" height="226.7" rx="14.2" ry="14.2" transform="translate(-169.3 411.8) rotate(-90)"/>
    <rect class="st2" x="131.2" y="177.2" width="471.9" height="226.7" rx="14.2" ry="14.2" transform="translate(76.6 657.7) rotate(-90)"/>
  </g>
  <g>
    <path class="st4" d="M21.8,60.5h17.4c5,0,9,4.4,8.5,9.4l-8.7,82.6c-1.1,10.2-15.8,10.2-16.9,0l-8.7-82.6c-.5-5,3.4-9.4,8.5-9.4Z"/>
    <path class="st5" d="M56.5,60.5h20.6c4.2,0,7.5,3.6,7,7.8l-10.3,97.6c-.9,8.5-13.2,8.5-14.1,0l-10.3-97.6c-.4-4.2,2.8-7.8,7-7.8Z"/>
    <path class="st4" d="M91.2,60.5h23.7c3.4,0,6,2.9,5.6,6.3l-11.9,112.5c-.7,6.8-10.6,6.8-11.3,0l-11.9-112.5c-.4-3.3,2.3-6.3,5.6-6.3Z"/>
    <path class="st5" d="M127.6,60.5h23.7c3.4,0,6,2.9,5.6,6.3l-11.9,112.5c-.7,6.8-10.6,6.8-11.3,0l-11.9-112.5c-.4-3.3,2.3-6.3,5.6-6.3Z"/>
    <path class="st4" d="M165.4,60.5h20.6c4.2,0,7.5,3.6,7,7.8l-10.3,97.6c-.9,8.5-13.2,8.5-14.1,0l-10.3-97.6c-.4-4.2,2.8-7.8,7-7.8Z"/>
    <path class="st5" d="M203.3,60.5h17.4c5,0,9,4.4,8.5,9.4l-8.7,82.6c-1.1,10.2-15.8,10.2-16.9,0l-8.7-82.6c-.5-5,3.4-9.4,8.5-9.4Z"/>
  </g>
  <g>
    <path class="st4" d="M267.1,60.5h17.4c5,0,9,4.4,8.5,9.4l-8.7,82.6c-1.1,10.2-15.8,10.2-16.9,0l-8.7-82.6c-.5-5,3.4-9.4,8.5-9.4Z"/>
    <path class="st5" d="M301.9,60.5h20.6c4.2,0,7.5,3.6,7,7.8l-10.3,97.6c-.9,8.5-13.2,8.5-14.1,0l-10.3-97.6c-.4-4.2,2.8-7.8,7-7.8Z"/>
    <path class="st4" d="M336.6,60.5h23.7c3.4,0,6,2.9,5.6,6.3l-11.9,112.5c-.7,6.8-10.6,6.8-11.3,0l-11.9-112.5c-.4-3.3,2.3-6.3,5.6-6.3Z"/>
    <path class="st5" d="M372.9,60.5h23.7c3.4,0,6,2.9,5.6,6.3l-11.9,112.5c-.7,6.8-10.6,6.8-11.3,0l-11.9-112.5c-.4-3.3,2.3-6.3,5.6-6.3Z"/>
    <path class="st4" d="M410.8,60.5h20.6c4.2,0,7.5,3.6,7,7.8l-10.3,97.6c-.9,8.5-13.2,8.5-14.1,0l-10.3-97.6c-.4-4.2,2.8-7.8,7-7.8Z"/>
    <path class="st5" d="M448.7,60.5h17.4c5,0,9,4.4,8.5,9.4l-8.7,82.6c-1.1,10.2-15.8,10.2-16.9,0l-8.7-82.6c-.5-5,3.4-9.4,8.5-9.4Z"/>
  </g>
  <g>
    <path class="st4" d="M220.8,520.9h-17.4c-5,0-9-4.4-8.5-9.4l8.7-82.6c1.1-10.2,15.8-10.2,16.9,0l8.7,82.6c.5,5-3.4,9.4-8.5,9.4Z"/>
    <path class="st5" d="M186,520.9h-20.6c-4.2,0-7.5-3.6-7-7.8l10.3-97.6c.9-8.5,13.2-8.5,14.1,0l10.3,97.6c.4,4.2-2.8,7.8-7,7.8Z"/>
    <path class="st4" d="M151.3,520.9h-23.7c-3.4,0-6-2.9-5.6-6.3l11.9-112.5c.7-6.8,10.6-6.8,11.3,0l11.9,112.5c.4,3.3-2.3,6.3-5.6,6.3Z"/>
    <path class="st5" d="M115,520.9h-23.7c-3.4,0-6-2.9-5.6-6.3l11.9-112.5c.7-6.8,10.6-6.8,11.3,0l11.9,112.5c.4,3.3-2.3,6.3-5.6,6.3Z"/>
    <path class="st4" d="M77.1,520.9h-20.6c-4.2,0-7.5-3.6-7-7.8l10.3-97.6c.9-8.5,13.2-8.5,14.1,0l10.3,97.6c.4,4.2-2.8,7.8-7,7.8Z"/>
    <path class="st5" d="M39.2,520.9h-17.4c-5,0-9-4.4-8.5-9.4l8.7-82.6c1.1-10.2,15.8-10.2,16.9,0l8.7,82.6c.5,5-3.4,9.4-8.5,9.4Z"/>
  </g>
  <g>
    <path class="st4" d="M466.7,520.9h-17.4c-5,0-9-4.4-8.5-9.4l8.7-82.6c1.1-10.2,15.8-10.2,16.9,0l8.7,82.6c.5,5-3.4,9.4-8.5,9.4Z"/>
    <path class="st5" d="M431.9,520.9h-20.6c-4.2,0-7.5-3.6-7-7.8l10.3-97.6c.9-8.5,13.2-8.5,14.1,0l10.3,97.6c.4,4.2-2.8,7.8-7,7.8Z"/>
    <path class="st4" d="M397.2,520.9h-23.7c-3.4,0-6-2.9-5.6-6.3l11.9-112.5c.7-6.8,10.6-6.8,11.3,0l11.9,112.5c.4,3.3-2.3,6.3-5.6,6.3Z"/>
    <path class="st5" d="M360.9,520.9h-23.7c-3.4,0-6-2.9-5.6-6.3l11.9-112.5c.7-6.8,10.6-6.8,11.3,0l11.9,112.5c.4,3.3-2.3,6.3-5.6,6.3Z"/>
    <path class="st4" d="M323,520.9h-20.6c-4.2,0-7.5-3.6-7-7.8l10.3-97.6c.9-8.5,13.2-8.5,14.1,0l10.3,97.6c.4,4.2-2.8,7.8-7,7.8Z"/>
    <path class="st5" d="M285.1,520.9h-17.4c-5,0-9-4.4-8.5-9.4l8.7-82.6c1.1-10.2,15.8-10.2,16.9,0l8.7,82.6c.5,5-3.4,9.4-8.5,9.4Z"/>
  </g>
  <rect class="st3" x="323.2" y="542.4" width="164.2" height="39.3" rx="19.6" ry="19.6"/>
  <rect class="st3" x="0" y="0" width="164.2" height="39.3" rx="19.6" ry="19.6"/>
  <g>
    <g>
      <rect class="st0" x="61.5" y="248.8" width="53.9" height="53.9" rx="13.8" ry="13.8" transform="translate(-45.3 18.9) rotate(-9.7)"/>
      <rect class="st6" x="62.4" y="249.7" width="52" height="52" rx="12.8" ry="12.8" transform="translate(-45.3 18.9) rotate(-9.7)"/>
    </g>
    <g>
      <rect class="st0" x="127" y="276.9" width="53.9" height="53.9" rx="13.8" ry="13.8" transform="translate(105.2 -33.3) rotate(18.6)"/>
      <rect class="st6" x="128" y="277.9" width="52" height="52" rx="12.8" ry="12.8" transform="translate(105.2 -33.3) rotate(18.6)"/>
    </g>
  </g>
  <g>
    <g>
      <rect class="st0" x="370.5" y="250.7" width="53.9" height="53.9" rx="13.8" ry="13.8" transform="translate(853.6 113.5) rotate(125.3)"/>
      <rect class="st6" x="371.4" y="251.7" width="52" height="52" rx="12.8" ry="12.8" transform="translate(853.6 113.5) rotate(125.3)"/>
    </g>
    <g>
      <rect class="st0" x="304.2" y="277.1" width="53.9" height="53.9" rx="13.8" ry="13.8" transform="translate(762.9 429.5) rotate(153.6)"/>
      <rect class="st6" x="305.1" y="278.1" width="52" height="52" rx="12.8" ry="12.8" transform="translate(762.9 429.5) rotate(153.6)"/>
    </g>
  </g>
  <g>
    <g>
      <path class="st1" d="M398.1,299.4c-.4-.3-.7-.6-.9-1-5.6-11.7-17.7-12.5-18.2-12.6-1.4,0-2.6-1.3-2.5-2.8,0-1.4,1.3-2.6,2.8-2.5.6,0,15.6,1,22.6,15.5.6,1.3,0,2.9-1.2,3.5-.9.4-1.9.3-2.6-.2Z"/>
      <g>
        <path class="st1" d="M390.4,280.3c-1.2-.8-1.5-2.5-.7-3.7l5.6-8.1c.8-1.2,2.5-1.5,3.7-.7s1.5,2.5.7,3.7l-5.6,8.1c-.8,1.2-2.5,1.5-3.7.7Z"/>
        <path class="st1" d="M398.3,285.7c-1.2-.8-1.5-2.5-.7-3.7l5.6-8.1c.8-1.2,2.5-1.5,3.7-.7s1.5,2.5.7,3.7l-5.6,8.1c-.8,1.2-2.5,1.5-3.7.7Z"/>
      </g>
    </g>
    <g>
      <path class="st1" d="M339.8,320c-3.7,1.8-8.4,3-13.9,2.7-1.5,0-2.6-1.4-2.5-2.8,0-1.5,1.4-2.6,2.8-2.5,13.2.9,20-9.3,20.2-9.8.8-1.2,2.5-1.6,3.7-.8,1.2.8,1.6,2.4.8,3.7-.2.4-4,6.1-11.2,9.6Z"/>
      <g>
        <path class="st1" d="M330.6,311.5c-1.3.6-2.9,0-3.6-1.2l-4.4-9c-.6-1.3,0-2.9,1.2-3.6s2.9,0,3.6,1.2l4.4,9c.6,1.3,0,2.9-1.2,3.6Z"/>
        <path class="st1" d="M339.3,307.3c-1.3.6-2.9,0-3.6-1.2l-4.4-9c-.6-1.3,0-2.9,1.2-3.6s2.9,0,3.6,1.2l4.4,9c.6,1.3,0,2.9-1.2,3.6Z"/>
      </g>
    </g>
  </g>
</svg>